<svg data-v-423bf9ae="" xmlns="http://www.w3.org/2000/svg" viewBox="0 0 419 90" class="iconLeft"><!----><!----><!----><g data-v-423bf9ae="" id="cb6ff78f-816f-4742-aa26-f3aaf4033946" fill="#262C4C" transform="matrix(4.231311900141013,0,0,4.231311900141013,105.97907894207398,17.961918577680766)"><path d="M0.78 10.50L0.78-0.42L4.37-0.42L4.37-0.42Q5.08-0.42 5.65-0.30L5.65-0.30L5.65-0.30Q6.22-0.18 6.75 0.13L6.75 0.13L6.75 0.13Q7.29 0.43 7.59 1.06L7.59 1.06L7.59 1.06Q7.88 1.68 7.88 2.60L7.88 2.60L7.88 2.88L7.88 2.88Q7.88 4.24 6.82 4.86L6.82 4.86L6.82 4.86Q8.16 5.50 8.16 7.08L8.16 7.08L8.16 7.36L8.16 7.36Q8.16 8.32 7.85 8.97L7.85 8.97L7.85 8.97Q7.53 9.62 6.96 9.93L6.96 9.93L6.96 9.93Q6.40 10.25 5.81 10.37L5.81 10.37L5.81 10.37Q5.22 10.50 4.48 10.50L4.48 10.50L0.78 10.50ZM4.55 5.91L4.55 5.91L3.05 5.91L3.05 8.54L4.55 8.54L4.55 8.54Q5.11 8.54 5.49 8.25L5.49 8.25L5.49 8.25Q5.87 7.97 5.87 7.28L5.87 7.28L5.87 7.15L5.87 7.15Q5.87 5.91 4.55 5.91ZM4.35 1.54L4.35 1.54L3.05 1.54L3.05 3.93L4.35 3.93L4.35 3.93Q5.59 3.93 5.59 2.83L5.59 2.83L5.59 2.65L5.59 2.65Q5.59 1.54 4.35 1.54ZM9.51 8.11L9.51 3.08L11.70 3.08L11.70 7.74L11.70 7.74Q11.70 8.78 12.68 8.78L12.68 8.78L12.68 8.78Q13.51 8.78 13.99 8.08L13.99 8.08L13.99 3.08L16.20 3.08L16.20 8.40L16.32 10.50L14.35 10.50L14.18 9.56L14.18 9.56Q13.37 10.68 11.80 10.68L11.80 10.68L11.80 10.68Q10.61 10.68 10.06 9.95L10.06 9.95L10.06 9.95Q9.51 9.23 9.51 8.11L9.51 8.11ZM22.04 10.35L22.04 10.35L22.04 9.48L22.04 9.48Q21.35 10.23 20.13 10.23L20.13 10.23L20.13 10.23Q17.37 10.23 17.37 6.76L17.37 6.76L17.37 6.37L17.37 6.37Q17.37 4.79 18.05 3.84L18.05 3.84L18.05 3.84Q18.72 2.90 20.13 2.90L20.13 2.90L20.13 2.90Q21.52 2.90 22.25 3.93L22.25 3.93L22.40 3.08L24.37 3.08L24.25 5.18L24.25 10.36L24.25 10.36Q24.25 13.48 20.82 13.48L20.82 13.48L20.82 13.48Q19.07 13.48 18.29 12.75L18.29 12.75L18.29 12.75Q17.51 12.03 17.51 10.79L17.51 10.79L17.51 10.50L19.60 10.50L19.60 10.50Q19.60 11.07 19.86 11.38L19.86 11.38L19.86 11.38Q20.12 11.69 20.78 11.69L20.78 11.69L20.78 11.69Q21.43 11.69 21.73 11.39L21.73 11.39L21.73 11.39Q22.04 11.09 22.04 10.35ZM20.78 8.33L20.78 8.33L20.78 8.33Q21.59 8.33 22.04 7.63L22.04 7.63L22.04 5.50L22.04 5.50Q21.59 4.80 20.78 4.80L20.78 4.80L20.78 4.80Q20.19 4.80 19.89 5.22L19.89 5.22L19.89 5.22Q19.59 5.64 19.59 6.37L19.59 6.37L19.59 6.76L19.59 6.76Q19.59 8.33 20.78 8.33ZM32.55 1.54L30.02 1.54L30.02 10.50L27.75 10.50L27.75 1.54L25.23 1.54L25.23-0.42L32.55-0.42L32.55 1.54ZM37.52 2.90L37.52 2.90L37.52 2.90Q37.67 2.90 37.73 2.91L37.73 2.91L37.73 5.04L37.35 5.04L37.35 5.04Q36.20 5.04 35.76 5.68L35.76 5.68L35.76 10.50L33.54 10.50L33.54 5.18L33.42 3.08L35.39 3.08L35.55 3.95L35.55 3.95Q36.29 2.90 37.52 2.90ZM45.32 10.50L43.33 10.50L43.19 9.73L43.19 9.73Q42.31 10.68 40.87 10.68L40.87 10.68L40.87 10.68Q39.69 10.68 39.14 10.06L39.14 10.06L39.14 10.06Q38.60 9.44 38.60 8.46L38.60 8.46L38.60 8.32L38.60 8.32Q38.60 7.20 39.28 6.66L39.28 6.66L39.28 6.66Q39.96 6.13 41.26 5.94L41.26 5.94L42.97 5.67L42.97 5.67Q42.95 5.10 42.73 4.84L42.73 4.84L42.73 4.84Q42.50 4.58 41.96 4.58L41.96 4.58L41.96 4.58Q40.96 4.58 40.96 5.53L40.96 5.53L38.88 5.53L38.88 5.40L38.88 5.40Q38.88 4.30 39.61 3.60L39.61 3.60L39.61 3.60Q40.33 2.90 42.03 2.90L42.03 2.90L42.03 2.90Q43.76 2.90 44.47 3.60L44.47 3.60L44.47 3.60Q45.18 4.30 45.18 5.73L45.18 5.73L45.18 8.40L45.32 10.50ZM41.68 8.89L41.68 8.89L41.68 8.89Q42.43 8.89 42.97 8.33L42.97 8.33L42.97 6.97L41.71 7.17L41.71 7.17Q40.80 7.32 40.80 8.05L40.80 8.05L40.80 8.13L40.80 8.13Q40.80 8.46 41.01 8.67L41.01 8.67L41.01 8.67Q41.23 8.89 41.68 8.89ZM48.50 6.54L48.50 7.04L48.50 7.04Q48.50 8.78 49.69 8.78L49.69 8.78L49.69 8.78Q50.20 8.78 50.48 8.50L50.48 8.50L50.48 8.50Q50.75 8.22 50.75 7.76L50.75 7.76L52.84 7.76L52.84 8.06L52.84 8.06Q52.84 9.25 52.02 9.97L52.02 9.97L52.02 9.97Q51.20 10.68 49.64 10.68L49.64 10.68L49.64 10.68Q47.95 10.68 47.12 9.70L47.12 9.70L47.12 9.70Q46.28 8.72 46.28 7.04L46.28 7.04L46.28 6.54L46.28 6.54Q46.28 4.86 47.12 3.88L47.12 3.88L47.12 3.88Q47.95 2.90 49.64 2.90L49.64 2.90L49.64 2.90Q51.20 2.90 52.02 3.64L52.02 3.64L52.02 3.64Q52.84 4.38 52.84 5.64L52.84 5.64L52.84 5.96L50.75 5.96L50.75 5.96Q50.75 4.80 49.69 4.80L49.69 4.80L49.69 4.80Q48.50 4.80 48.50 6.54L48.50 6.54ZM56.15 10.50L53.94 10.50L53.94-0.70L56.15-0.70L56.15 5.60L58.21 3.08L60.86 3.08L58.41 5.89L60.86 10.50L58.28 10.50L56.88 7.64L56.15 8.48L56.15 10.50ZM68.47 6.59L68.47 7.59L63.74 7.59L63.74 7.59Q63.80 8.34 64.15 8.67L64.15 8.67L64.15 8.67Q64.50 9.00 65.14 9.00L65.14 9.00L65.14 9.00Q65.70 9.00 66.05 8.74L66.05 8.74L66.05 8.74Q66.39 8.47 66.39 8.12L66.39 8.12L68.47 8.12L68.47 8.18L68.47 8.18Q68.47 9.27 67.59 9.97L67.59 9.97L67.59 9.97Q66.70 10.68 65.13 10.68L65.13 10.68L65.13 10.68Q63.35 10.68 62.44 9.67L62.44 9.67L62.44 9.67Q61.53 8.67 61.53 6.99L61.53 6.99L61.53 6.59L61.53 6.59Q61.53 4.93 62.44 3.91L62.44 3.91L62.44 3.91Q63.35 2.90 65.04 2.90L65.04 2.90L65.04 2.90Q66.74 2.90 67.61 3.91L67.61 3.91L67.61 3.91Q68.47 4.91 68.47 6.59L68.47 6.59ZM66.25 5.99L66.25 5.99Q66.15 4.58 65.00 4.58L65.00 4.58L65.00 4.58Q63.85 4.58 63.76 5.99L63.76 5.99L66.25 5.99ZM73.63 2.90L73.63 2.90L73.63 2.90Q73.78 2.90 73.84 2.91L73.84 2.91L73.84 5.04L73.46 5.04L73.46 5.04Q72.31 5.04 71.86 5.68L71.86 5.68L71.86 10.50L69.65 10.50L69.65 5.18L69.52 3.08L71.50 3.08L71.65 3.95L71.65 3.95Q72.39 2.90 73.63 2.90Z"></path></g><defs data-v-423bf9ae=""><linearGradient data-v-423bf9ae="" gradientTransform="rotate(25)" id="b6cd0a8d-066b-4d1e-a548-24fdb7fb79ea" x1="0%" y1="0%" x2="100%" y2="0%"><stop data-v-423bf9ae="" offset="0%" style="stop-color: rgb(233, 13, 218); stop-opacity: 1;"></stop><stop data-v-423bf9ae="" offset="100%" style="stop-color: rgb(21, 207, 241); stop-opacity: 1;"></stop></linearGradient></defs><g data-v-423bf9ae="" id="605f395d-3fcb-4c29-a6d4-57160b3664d3" transform="matrix(1.0785933980810487,0,0,1.0785933980810487,-8.316752856857761,-8.650674689946442)" stroke="none" fill="url(#b6cd0a8d-066b-4d1e-a548-24fdb7fb79ea)"><g stroke-miterlimit="10"><path d="M78.557 43.555a44.475 44.475 0 0 1 1.45 11.315c0 .459-.015.914-.026 1.368l4.633 1.809 3.844-3.177 2.93 3.469-5.754 4.757-6-2.419c-.686 5.298-2.292 10.216-4.613 14.507l.826-1.117 4.506 2.567 4.271-2.584 2.385 3.854-6.396 3.871-7.055-4.123c-5.516 8.565-14.06 14.069-23.658 14.069-9.575 0-18.1-5.478-23.614-14.007l-6.948 4.062-6.397-3.871 2.385-3.854 4.272 2.584 4.506-2.568.321.435c-2.116-4.106-3.59-8.757-4.245-13.745l-5.812 2.342-5.754-4.757 2.929-3.469 3.843 3.177 4.438-1.73c-.016-.481-.03-.961-.03-1.445 0-3.952.514-7.755 1.455-11.323l-7.5-.277-3.268-6.678 4.114-1.969 2.183 4.46 5.194.247.092 1.498c3.11-9.226 9.191-16.562 16.785-20.236.144-2.829 2.49-5.087 5.388-5.087H56.83c2.99 0 5.415 2.398 5.415 5.357 0 .129-.03.251-.038.378 7.146 3.924 12.811 11.155 15.697 20.107l.123-2.016 5.195-.247 2.182-4.46 4.113 1.969-3.268 6.678-7.692.279zM65.141 10.77l-.6 1.588-.911.406-1.923.528-1.603.967-2.267 1.245v-1.245l2.548-1.807 1.86-.561 1.637-1.121.942-1.869 1.826-.622-.504 1.743zM39.357 13.292l-1.921-.528-.912-.406-.599-1.588-1.007-.748-.505-1.743 1.827.622.944 1.869 1.636 1.121 1.859.561 2.55 1.807v1.245l-2.267-1.245z"></path></g></g><!----></svg>